<svg xmlns="http://www.w3.org/2000/svg" width="50" height="50" viewBox="0 0 50 50">
    <g fill="#5EABDD" fill-rule="nonzero">
        <path d="M4.688 10.156h4.687c.431 0 .781-.349.781-.781V4.687a.781.781 0 0 0-.781-.78H4.687a.781.781 0 0 0-.78.78v4.688c0 .432.35.781.78.781zm.78-4.687h3.126v3.125H5.469V5.469zM13.281 10.156h4.688c.431 0 .781-.349.781-.781V4.687a.781.781 0 0 0-.781-.78H13.28a.781.781 0 0 0-.781.78v4.688c0 .432.35.781.781.781zm.781-4.687h3.126v3.125h-3.125V5.469zM21.875 10.156h4.688c.43 0 .78-.349.78-.781V4.687a.781.781 0 0 0-.78-.78h-4.688a.781.781 0 0 0-.781.78v4.688c0 .432.35.781.781.781zm.781-4.687h3.125v3.125h-3.125V5.469zM4.688 18.75h4.687c.431 0 .781-.35.781-.781V13.28a.781.781 0 0 0-.781-.781H4.687a.781.781 0 0 0-.78.781v4.688c0 .432.35.781.78.781zm.78-4.688h3.126v3.126H5.469v-3.125zM13.281 18.75h4.688c.431 0 .781-.35.781-.781V13.28a.781.781 0 0 0-.781-.781H13.28a.781.781 0 0 0-.781.781v4.688c0 .432.35.781.781.781zm.781-4.688h3.126v3.126h-3.125v-3.125zM21.875 18.75h4.688c.43 0 .78-.35.78-.781V13.28a.781.781 0 0 0-.78-.781h-4.688a.781.781 0 0 0-.781.781v4.688c0 .432.35.781.781.781zm.781-4.688h3.125v3.126h-3.125v-3.125zM4.688 27.344h4.687c.431 0 .781-.35.781-.782v-4.687a.781.781 0 0 0-.781-.781H4.687a.781.781 0 0 0-.78.781v4.688c0 .432.35.78.78.78zm.78-4.688h3.126v3.125H5.469v-3.125zM13.281 27.344h4.688c.431 0 .781-.35.781-.782v-4.687a.781.781 0 0 0-.781-.781H13.28a.781.781 0 0 0-.781.781v4.688c0 .432.35.78.781.78zm.781-4.688h3.126v3.125h-3.125v-3.125zM21.875 27.344h4.688c.43 0 .78-.35.78-.782v-4.687a.781.781 0 0 0-.78-.781h-4.688a.781.781 0 0 0-.781.781v4.688c0 .432.35.78.781.78zm.781-4.688h3.125v3.125h-3.125v-3.125zM10.156 35.156V30.47a.781.781 0 0 0-.781-.782H4.687a.781.781 0 0 0-.78.782v4.687c0 .432.35.782.78.782h4.688c.431 0 .781-.35.781-.782zm-1.562-.781H5.469V31.25h3.125v3.125zM13.281 35.938h4.688c.431 0 .781-.35.781-.782V30.47a.781.781 0 0 0-.781-.782H13.28a.781.781 0 0 0-.781.782v4.687c0 .432.35.782.781.782zm.781-4.688h3.126v3.125h-3.125V31.25zM21.875 35.938h4.688c.43 0 .78-.35.78-.782V30.47a.781.781 0 0 0-.78-.782h-4.688a.781.781 0 0 0-.781.782v4.687c0 .432.35.782.781.782zm.781-4.688h3.125v3.125h-3.125V31.25zM33.594 35.938h4.687c.431 0 .782-.35.782-.782V30.47a.781.781 0 0 0-.782-.782h-4.687a.781.781 0 0 0-.782.782v4.687c0 .432.35.782.782.782zm.781-4.688H37.5v3.125h-3.125V31.25zM41.406 35.938h4.688c.431 0 .781-.35.781-.782V30.47a.781.781 0 0 0-.781-.782h-4.688a.781.781 0 0 0-.781.782v4.687c0 .432.35.782.781.782zm.782-4.688h3.124v3.125h-3.124V31.25z"/>
        <path d="M49.219 25.781H31.25v-4.687h3.906v1.562c0 .432.35.782.782.782h6.25c.43 0 .78-.35.78-.782V3.906a.781.781 0 0 0-.78-.781h-6.25a.781.781 0 0 0-.782.781V5.47H31.25V.78A.781.781 0 0 0 30.469 0H.78A.781.781 0 0 0 0 .781v45.313A3.91 3.91 0 0 0 3.906 50h42.188A3.91 3.91 0 0 0 50 46.094V26.562a.781.781 0 0 0-.781-.78zm-12.5-21.093h4.687v17.187H36.72V4.687zM35.156 7.03v12.5H31.25v-12.5h3.906zM1.563 46.094V1.562h28.125v46.875h-7.813v-8.593h1.563V38.28H7.812v1.563h1.563v8.593H3.906a2.347 2.347 0 0 1-2.344-2.343zm9.374-6.25h3.907v8.593h-3.906v-8.593zm5.47 8.593v-8.593h3.905v8.593h-3.906zm21.874 0V43.75h3.125v4.688h-3.125zm10.157-2.343a2.347 2.347 0 0 1-2.344 2.343h-3.125V42.97a.781.781 0 0 0-.782-.782H37.5a.781.781 0 0 0-.781.782v5.468H31.25V27.345h17.188v18.75z"/>
        <path d="M38.281 9.375h1.563v1.563h-1.563zM38.281 12.5h1.563v1.563h-1.563zM38.281 15.625h1.563v1.563h-1.563zM38.281 18.75h1.563v1.563h-1.563zM38.281 6.25h1.563v1.563h-1.563z"/>
    </g>
</svg>
