<svg xmlns="http://www.w3.org/2000/svg" width="50" height="50" viewBox="0 0 50 50">
    <g fill="#5EABDD" fill-rule="nonzero">
        <path d="M42.678 7.322C37.956 2.6 31.678 0 25 0 18.322 0 12.044 2.6 7.322 7.322A24.836 24.836 0 0 0 0 25c0 6.678 2.6 12.956 7.322 17.678C12.044 47.4 18.322 50 25 50c6.678 0 12.956-2.6 17.678-7.322A24.836 24.836 0 0 0 50 25c0-6.678-2.6-12.956-7.322-17.678zM25 48.008C12.313 48.008 1.992 37.687 1.992 25S12.313 1.992 25 1.992 48.008 12.313 48.008 25 37.687 48.008 25 48.008z"/>
        <path d="M39.804 14.355a3.54 3.54 0 0 0-4.976 0L20.023 29.061l-4.85-4.818a3.54 3.54 0 0 0-4.977 0 3.483 3.483 0 0 0 0 4.943l7.34 7.29a3.508 3.508 0 0 0 2.487 1.024c.94 0 1.824-.364 2.489-1.024L39.804 19.3a3.483 3.483 0 0 0 0-4.944zm-1.421 3.531L21.09 35.064a1.504 1.504 0 0 1-1.067.439c-.402 0-.781-.156-1.066-.44l-7.34-7.29a1.493 1.493 0 0 1 0-2.118c.295-.292.68-.438 1.067-.438.386 0 .772.146 1.066.438l5.562 5.525c.393.39 1.03.39 1.422 0L36.25 15.768a1.517 1.517 0 0 1 2.133 0 1.493 1.493 0 0 1 0 2.118zM45.09 29.198a.985.985 0 0 0-1.2.722c-2.18 8.683-9.886 14.747-18.737 14.747a.993.993 0 0 0-.986 1c0 .552.441 1 .986 1 9.754 0 18.245-6.684 20.65-16.253a1.001 1.001 0 0 0-.713-1.216zM45.008 24.167c-.456 0-.825.386-.825.862 0 .246-.005.495-.016.738-.02.476.334.878.79.899h.036c.439 0 .804-.361.824-.824.01-.269.016-.542.016-.813 0-.476-.37-.862-.825-.862z"/>
    </g>
</svg>
