<svg xmlns="http://www.w3.org/2000/svg" width="50" height="50" viewBox="0 0 50 50">
    <g fill="#5EABDD" fill-rule="nonzero">
        <path d="M42.678 7.322C37.956 2.601 31.678 0 25 0 18.322 0 12.044 2.6 7.322 7.322 2.601 12.044 0 18.322 0 25c0 6.678 2.6 12.956 7.322 17.678C12.044 47.399 18.322 50 25 50c6.678 0 12.956-2.6 17.678-7.322C47.399 37.956 50 31.678 50 25c0-6.678-2.6-12.956-7.322-17.678zM47.88 19.9l-6.594-1.846a.783.783 0 0 0-.975.926l.536 2.378a2.458 2.458 0 0 0 1.186 1.596c.57.323 1.25.403 1.878.224v1.187c0 .544-.26 1.06-.697 1.384l-3.992 2.957-3.52-6.793a.783.783 0 0 0-1.39.72l3.568 6.886a4.121 4.121 0 0 0 3.943 2.216l.182-.013-.262 1.445-4.773 4.497a.782.782 0 0 0-.191.282l-3.541 8.949a3.795 3.795 0 0 1-2.565-.426 3.758 3.758 0 0 1-1.8-2.292c-.34-1.23-.376-1.643-.376-1.764V38.64c0-.324-.2-.615-.502-.731l-.832-.32a6.742 6.742 0 0 1-2.82-2.054l-1.448-1.791a.783.783 0 0 0-.747-.28L16.355 34.5a2.558 2.558 0 0 1-2.573-1.092l-.607-.905a5.061 5.061 0 0 1-.29-5.153l1.328-2.56a.783.783 0 0 0 .087-.378l-.021-.967a1.713 1.713 0 0 1 1.422-1.735l5.186-.916a3.38 3.38 0 0 1 2.462.512l2.994 1.982c.2.133.452.166.68.09l4.906-1.64a.783.783 0 0 0 .277-.162l.71-.641a3.04 3.04 0 0 0-.02-4.522.783.783 0 0 0-.742-.165l-3.89 1.153-2.41-2.206a1.603 1.603 0 0 0-1.71-.303 1.603 1.603 0 0 0-1 1.435l-.769-.682a.782.782 0 0 0-.14-.098 3.281 3.281 0 0 0-3.83.465l-1.22 1.132a.781.781 0 0 0-.156.2l-1.204 2.213-1.498-.417a.886.886 0 0 1-.648-.807l-.06-1.116a.887.887 0 0 1 .792-.93l1.486-.158a.783.783 0 0 0 .7-.778v-1.96l3.01-2.27c.356-.27.65-.602.872-.99l1.025-1.79a.783.783 0 0 0-.83-1.158l-3.675.722V7.71c0-.777.347-1.503.951-1.99l4.812-3.881 3.197 1.84c.38.22.821.275 1.243.157.423-.119.771-.395.982-.78l.649-1.18c4.802.786 9.229 3.044 12.738 6.553 3.197 3.198 5.357 7.157 6.31 11.47zm-22.938-1.718l-.226-1.825a.055.055 0 0 1 .025-.017c.03-.013.043 0 .055.01l2.737 2.505a.783.783 0 0 0 .752.174l3.835-1.138c.149.231.229.5.23.785.001.424-.17.813-.485 1.097l-.588.531-4.388 1.467L24.213 20a4.936 4.936 0 0 0-3.598-.749l-3.143.555.872-1.602 1.126-1.045a1.718 1.718 0 0 1 1.937-.28l2.239 1.984a.783.783 0 0 0 1.296-.682zm.491-16.61c.58.01 1.157.042 1.73.094l-.351.639a.05.05 0 0 1-.032.025c-.021.006-.035-.003-.04-.005l-1.307-.753zm-17.004 40A23.281 23.281 0 0 1 1.566 25c0-6.26 2.437-12.144 6.863-16.57 3.205-3.205 7.175-5.367 11.498-6.316l-2.96 2.387a4.105 4.105 0 0 0-1.534 3.21v1.144a.783.783 0 0 0 .933.768l2.927-.574-.173.303c-.117.203-.27.377-.457.518l-3.32 2.506a.783.783 0 0 0-.312.625v1.645l-.785.083a2.452 2.452 0 0 0-2.19 2.57l.06 1.116a2.451 2.451 0 0 0 1.792 2.233l.208.058a3.27 3.27 0 0 0-1.403 2.772l.018.768-1.236 2.382a6.626 6.626 0 0 0 .38 6.746l.607.905a4.124 4.124 0 0 0 4.149 1.761l5.337-.952 1.156 1.431a8.31 8.31 0 0 0 3.477 2.531l.33.127v3.235c0 .264.045.777.433 2.18a5.313 5.313 0 0 0 2.543 3.242c.04.022.08.041.12.062a23.647 23.647 0 0 1-5.027.538 23.281 23.281 0 0 1-16.57-6.863zm33.142 0a23.464 23.464 0 0 1-6.331 4.52l2.93-7.407 4.834-4.555a.784.784 0 0 0 .233-.43l.489-2.688a.783.783 0 0 0-.824-.92l-1.186.08a2.554 2.554 0 0 1-1.417-.315l3.847-2.85a3.301 3.301 0 0 0 1.33-2.642v-2.268a.783.783 0 0 0-1.028-.744l-.929.308a.878.878 0 0 1-.715-.07.877.877 0 0 1-.43-.577l-.247-1.099 6.065 1.699c.16 1.112.242 2.243.242 3.387 0 6.26-2.437 12.144-6.863 16.57z"/>
        <path d="M12.064 10.232l.86.528-.47 2.113a.783.783 0 0 0 1.529.34l.59-2.659a.783.783 0 0 0-.354-.837l-1.336-.82a.783.783 0 1 0-.819 1.335zM29.663 15.73h2.319c.168 0 .33-.054.465-.153l1.3-.962a.783.783 0 1 0-.931-1.258l-1.092.807h-2.061a.783.783 0 0 0 0 1.566zM36.39 14.447a.782.782 0 1 0 1.265-.922l-2.138-2.932a.783.783 0 1 0-1.265.923l2.138 2.931z"/>
    </g>
</svg>
