<svg xmlns="http://www.w3.org/2000/svg" width="50" height="50" viewBox="0 0 50 50">
    <g fill="#5EABDD" fill-rule="nonzero">
        <path d="M48.346 29.287h-.773v-6.74c0-1.067-.548-2.012-1.385-2.586v-.918c0-1.33-1.118-2.414-2.492-2.414h-.577l2.207-3.136c.74-1.052.458-2.49-.627-3.207L29.726.401a2.426 2.426 0 0 0-1.785-.36 2.373 2.373 0 0 0-1.525.968L13.493 19.38H9.897l.867-8.509a.254.254 0 0 1 .164-.211 5.559 5.559 0 0 0 2.728-2.147.262.262 0 0 1 .244-.111l5.64.54a.73.73 0 0 0 .805-.64.719.719 0 0 0-.66-.778l-5.64-.54a1.74 1.74 0 0 0-1.63.764 4.087 4.087 0 0 1-2.006 1.578A1.674 1.674 0 0 0 9.3 10.731l-.881 8.65H7.48L8.853 5.922c.05-.485.496-.84.996-.792l11.399 1.09a.73.73 0 0 0 .804-.638.719.719 0 0 0-.66-.78L9.994 3.714c-1.307-.125-2.476.803-2.605 2.07L6.283 16.629H4.4c-1.373 0-2.491 1.083-2.491 2.414v.626C.783 20.171 0 21.271 0 22.547v24.286C0 48.58 1.467 50 3.27 50h41.035c1.802 0 3.268-1.42 3.268-3.167v-6.74h.773c.911 0 1.653-.718 1.653-1.6v-7.605c0-.883-.742-1.601-1.653-1.601zm-4.65-11.233c.563 0 1.021.444 1.021.99v.362a3.382 3.382 0 0 0-.412-.026h-3.12l.932-1.326h1.58zM27.632 1.811a.908.908 0 0 1 .755-.386c.18 0 .358.053.51.154l14.974 9.885a.867.867 0 0 1 .24 1.226l-4.707 6.69h-1.13l2.308-3.28a1.622 1.622 0 0 0 .08-1.767 3.877 3.877 0 0 1-.492-2.457c.084-.628-.2-1.24-.744-1.6l-7.762-5.124a1.767 1.767 0 0 0-1.809-.085 4.225 4.225 0 0 1-2.54.454 1.764 1.764 0 0 0-1.669.719l-9.244 13.14h-1.13l12.36-17.569zm.324 12.099c-3.203 0-5.832 2.42-6.046 5.47h-3.728l8.68-12.338a.265.265 0 0 1 .248-.11 5.746 5.746 0 0 0 3.456-.618.267.267 0 0 1 .27.016l7.761 5.124a.249.249 0 0 1 .114.237 5.273 5.273 0 0 0 .67 3.342.246.246 0 0 1-.014.265l-2.872 4.082h-2.493c-.215-3.05-2.843-5.47-6.046-5.47zm4.571 5.47h-9.143c.211-2.264 2.18-4.045 4.572-4.045 2.391 0 4.36 1.78 4.571 4.045zm-29.149-.337c0-.545.458-.989 1.021-.989h1.739l-.135 1.326H3.378v-.337zm-1.906 3.504c0-.96.806-1.742 1.798-1.742h41.035c.991 0 1.798.781 1.798 1.742v1.977H1.472v-1.977zm44.63 24.286c0 .96-.806 1.742-1.797 1.742H3.27c-.992 0-1.798-.781-1.798-1.742v-1.977h3.966a.724.724 0 0 0 .735-.712.724.724 0 0 0-.735-.712H1.472V25.949h44.63v3.338H39.11c-2.203 0-4.112 1.244-5.018 3.045l-.01.018-.02.046a5.273 5.273 0 0 0-.279.69v.001a5.231 5.231 0 0 0-.251 1.603c0 2.98 2.502 5.404 5.578 5.404h6.992v3.338H10.147a.724.724 0 0 0-.736.712c0 .394.33.712.736.712h35.956v1.977zm2.426-8.34a.18.18 0 0 1-.182.176H39.11a4.131 4.131 0 0 1-3.701-2.255 3.861 3.861 0 0 1 .09-3.619 4.131 4.131 0 0 1 3.611-2.084h9.236c.1 0 .182.08.182.177v7.604z"/>
        <path d="M39.282 31.8c-1.645 0-2.984 1.296-2.984 2.89s1.339 2.89 2.984 2.89c1.646 0 2.984-1.296 2.984-2.89s-1.338-2.89-2.984-2.89zm0 4.356c-.834 0-1.513-.658-1.513-1.466 0-.808.68-1.466 1.513-1.466.835 0 1.513.658 1.513 1.466 0 .808-.678 1.466-1.513 1.466z"/>
    </g>
</svg>
