<svg xmlns="http://www.w3.org/2000/svg" width="50" height="50" viewBox="0 0 50 50">
    <g fill="#5EABDD" fill-rule="nonzero">
        <path d="M11.385 11.947a.75.75 0 0 0-1.06.005 2.048 2.048 0 0 1-2.893.014.749.749 0 1 0-1.054 1.064 3.52 3.52 0 0 0 2.493 1.027h.018a3.521 3.521 0 0 0 2.501-1.05.75.75 0 0 0-.005-1.06z"/>
        <path d="M15.408 12.165A2.69 2.69 0 0 0 17.58 9.53a2.69 2.69 0 0 0-2.046-2.608v-.267A6.66 6.66 0 0 0 8.88.003 6.66 6.66 0 0 0 2.23 6.654v.228A2.69 2.69 0 0 0 0 9.53a2.69 2.69 0 0 0 2.36 2.666A6.675 6.675 0 0 0 6 16.883v.439h-2.19a2.845 2.845 0 0 0-2.843 2.842v4.456c0 .414.336.75.75.75h1.706a.75.75 0 1 0 0-1.5h-.957v-3.706c0-.74.603-1.343 1.344-1.343H6a.75.75 0 0 0 1.499-.007v-1.42a6.648 6.648 0 0 0 2.313.079v1.34a.75.75 0 0 0 1.498.008h2.101c.741 0 1.344.602 1.344 1.343v3.707h-8.11a.75.75 0 1 0 0 1.498h8.86a.75.75 0 0 0 .749-.749v-4.456a2.845 2.845 0 0 0-2.842-2.842H11.31v-.244a6.673 6.673 0 0 0 4.097-4.913zm.125-3.635a1.187 1.187 0 0 1 0 1.998V8.53zM2.23 10.625a1.19 1.19 0 0 1 0-2.192v2.192zM8.88 1.501a5.159 5.159 0 0 1 5.153 5.153v.214c-4.246-.177-6.41-2.294-7.16-3.227a.749.749 0 1 0-1.168.939c.04.05.084.103.13.157-.328.34-1 .89-2.04 1.091A5.161 5.161 0 0 1 8.88 1.501zm0 14.54a5.159 5.159 0 0 1-5.153-5.154v-3.53a5.376 5.376 0 0 0 3.17-1.567c1.352 1.14 3.647 2.448 7.136 2.578v2.52a5.159 5.159 0 0 1-5.153 5.153z"/>
        <path d="M6.7 8.344a.75.75 0 0 0-.75.75v.93a.75.75 0 0 0 1.498 0v-.93a.75.75 0 0 0-.749-.75zM10.912 8.344a.75.75 0 0 0-.75.75v.93a.75.75 0 1 0 1.499 0v-.93a.75.75 0 0 0-.75-.75zM47.83 12.165A2.69 2.69 0 0 0 50 9.53a2.69 2.69 0 0 0-2.046-2.608v-.266A6.66 6.66 0 0 0 41.302.003a6.66 6.66 0 0 0-6.652 6.652v.228a2.69 2.69 0 0 0-2.23 2.646 2.69 2.69 0 0 0 2.36 2.666 6.675 6.675 0 0 0 3.642 4.688v.439h-2.19a2.845 2.845 0 0 0-2.843 2.842v4.456c0 .414.336.75.75.75h2.159a.75.75 0 1 0 0-1.5h-1.41v-3.706c0-.74.602-1.343 1.343-1.343h2.191a.75.75 0 0 0 1.499-.007v-1.42a6.648 6.648 0 0 0 2.312.079v1.34a.75.75 0 0 0 1.498.008h2.102c.74 0 1.344.602 1.344 1.343v3.707h-7.852a.75.75 0 1 0 0 1.498h8.601a.75.75 0 0 0 .75-.749v-4.456a2.845 2.845 0 0 0-2.843-2.842h-2.101v-.244a6.673 6.673 0 0 0 4.097-4.913zm.124-3.635a1.187 1.187 0 0 1 0 1.998V8.53zM34.65 10.625a1.19 1.19 0 0 1 0-2.192v2.192zm6.652-9.124a5.159 5.159 0 0 1 5.153 5.153v.214c-4.246-.177-6.41-2.294-7.16-3.227a.749.749 0 1 0-1.168.939c.04.049.083.102.13.157-.33.342-1.002.89-2.041 1.09a5.161 5.161 0 0 1 5.086-4.326zm0 14.54a5.159 5.159 0 0 1-5.153-5.154v-3.53a5.376 5.376 0 0 0 3.17-1.568c1.352 1.14 3.647 2.449 7.136 2.58v2.518a5.159 5.159 0 0 1-5.153 5.154z"/>
        <path d="M43.806 11.947a.75.75 0 0 0-1.06.005 2.048 2.048 0 0 1-2.893.014.749.749 0 1 0-1.055 1.064 3.521 3.521 0 0 0 2.494 1.027h.017a3.521 3.521 0 0 0 2.502-1.05.75.75 0 0 0-.005-1.06zM39.12 8.344a.75.75 0 0 0-.75.75v.93a.75.75 0 1 0 1.5 0v-.93a.75.75 0 0 0-.75-.75zM43.332 8.344a.75.75 0 0 0-.749.75v.93a.75.75 0 1 0 1.498 0v-.93a.75.75 0 0 0-.749-.75zM27.525 36.575a.75.75 0 0 0-1.06.005 2.046 2.046 0 0 1-2.893.014.75.75 0 1 0-1.054 1.064 3.521 3.521 0 0 0 2.494 1.027h.017a3.521 3.521 0 0 0 2.501-1.05.75.75 0 0 0-.005-1.06z"/>
        <path d="M31.549 36.793a2.69 2.69 0 0 0 2.17-2.636 2.69 2.69 0 0 0-2.046-2.608v-.266a6.663 6.663 0 0 0-4.349-6.24 3.225 3.225 0 0 0 1.129-2.451 3.235 3.235 0 0 0-3.232-3.232 3.235 3.235 0 0 0-3.232 3.232c0 .926.393 1.762 1.019 2.351-2.687.856-4.638 3.374-4.638 6.34v.228a2.69 2.69 0 0 0-2.23 2.646 2.69 2.69 0 0 0 2.36 2.666 6.675 6.675 0 0 0 3.642 4.688v.44H19.95a2.845 2.845 0 0 0-2.842 2.841v4.456c0 .414.335.75.75.75h13.787a.75.75 0 0 0 .749-.75v-4.456a2.845 2.845 0 0 0-2.842-2.842H27.45v-.244a6.673 6.673 0 0 0 4.098-4.913zm.124-3.635a1.187 1.187 0 0 1 0 1.998v-1.998zM18.37 35.253a1.19 1.19 0 0 1-.732-1.096c0-.493.303-.917.732-1.096v2.192zM25.22 20.86c.956 0 1.733.777 1.733 1.733 0 .956-.777 1.733-1.733 1.733a1.735 1.735 0 0 1-1.733-1.733c0-.956.777-1.733 1.733-1.733zm-.2 5.27a5.159 5.159 0 0 1 5.154 5.154v.213c-4.247-.177-6.41-2.294-7.161-3.227a.749.749 0 1 0-1.168.939c.04.05.084.102.13.157-.33.342-1.002.89-2.04 1.091a5.161 5.161 0 0 1 5.085-4.327zm4.531 17.32c.741 0 1.344.602 1.344 1.343V48.5h-12.29v-3.707c0-.74.604-1.343 1.345-1.343h2.19a.749.749 0 0 0 1.499-.007v-1.42a6.648 6.648 0 0 0 2.313.079v1.34a.75.75 0 0 0 1.498.008h2.101zm-4.53-2.78a5.159 5.159 0 0 1-5.154-5.153v-3.532a5.376 5.376 0 0 0 3.17-1.566c1.352 1.14 3.647 2.448 7.136 2.578v2.52a5.159 5.159 0 0 1-5.153 5.153z"/>
        <path d="M22.84 32.972a.75.75 0 0 0-.75.75v.93a.75.75 0 1 0 1.498 0v-.93a.75.75 0 0 0-.749-.75zM27.052 32.972a.75.75 0 0 0-.75.75v.93a.75.75 0 1 0 1.499 0v-.93a.75.75 0 0 0-.75-.75zM30.015 3.36h-9.843a.75.75 0 1 0 0 1.5h9.843a.75.75 0 1 0 0-1.5zM46.49 29.642a.75.75 0 0 0-.75.75c0 5.604-4.56 10.164-10.165 10.164a.75.75 0 1 0 0 1.498c6.431 0 11.663-5.232 11.663-11.663a.749.749 0 0 0-.749-.749zM14.338 40.556c-5.605 0-10.164-4.56-10.164-10.165a.75.75 0 1 0-1.499 0c0 6.431 5.232 11.663 11.663 11.663a.75.75 0 1 0 0-1.498z"/>
    </g>
</svg>
