<svg xmlns="http://www.w3.org/2000/svg" width="30" height="30" viewBox="0 0 30 30">
    <g fill="#5B6D7C" fill-rule="nonzero" opacity=".8">
        <path d="M30 15c0-8.284-6.716-15-15-15C6.716 0 0 6.716 0 15c0 8.284 6.716 15 15 15 8.284 0 15-6.716 15-15zM1.364 15C1.364 7.469 7.469 1.364 15 1.364c7.531 0 13.636 6.105 13.636 13.636 0 7.531-6.105 13.636-13.636 13.636-7.531 0-13.636-6.105-13.636-13.636z"/>
        <path d="M15.575 23.658V15h2.857l.452-2.87h-3.309v-1.438c0-.748.246-1.463 1.32-1.463h2.148V6.365h-3.049c-2.564 0-3.263 1.689-3.263 4.029v1.736h-1.76V15h1.76v8.658h2.844z"/>
    </g>
</svg>
