<svg xmlns="http://www.w3.org/2000/svg" width="18" height="13" viewBox="0 0 18 13">
    <g fill="#5B6D7C" fill-rule="nonzero">
        <path d="M14.908 9.897a.302.302 0 0 1-.203-.077L11.29 6.77a.273.273 0 0 1-.013-.399c.112-.115.3-.12.42-.012l3.416 3.05c.12.107.125.286.013.4a.303.303 0 0 1-.217.089zM3.504 9.897a.304.304 0 0 1-.216-.09.273.273 0 0 1 .013-.398l3.417-3.051a.308.308 0 0 1 .42.012.273.273 0 0 1-.013.399L3.707 9.82a.302.302 0 0 1-.203.077z"/>
        <path d="M16.929 12.734H1.484C.666 12.734 0 12.1 0 11.32V1.685C0 .906.666.272 1.484.272H16.93c.818 0 1.484.634 1.484 1.413v9.636c0 .78-.666 1.413-1.484 1.413zM1.484.838c-.49 0-.89.38-.89.847v9.636c0 .467.4.848.89.848H16.93c.491 0 .89-.38.89-.848V1.685c0-.467-.399-.847-.89-.847H1.484z"/>
        <path d="M9.207 7.923c-.395 0-.79-.125-1.09-.374L.493 1.218a.274.274 0 0 1-.03-.399.31.31 0 0 1 .42-.027l7.624 6.33c.38.315 1.02.315 1.4 0L17.52.802a.308.308 0 0 1 .42.027.274.274 0 0 1-.029.4l-7.614 6.32a1.71 1.71 0 0 1-1.09.374z"/>
    </g>
</svg>
