<svg xmlns="http://www.w3.org/2000/svg" width="19" height="18" viewBox="0 0 19 18">
    <path fill="#5B6D7C" fill-rule="nonzero" d="M18.987 14.815a1.381 1.381 0 0 0-.723-1.023l-4.687-2.557a1.533 1.533 0 0 0-1.771.222l-.924.875a.705.705 0 0 1-.904.048 26.254 26.254 0 0 1-4.045-3.833.616.616 0 0 1 .05-.857l.923-.874a1.339 1.339 0 0 0 .235-1.678L4.44.698a1.463 1.463 0 0 0-1.08-.686 1.507 1.507 0 0 0-1.23.396L.74 1.726c-.971.92-.987 2.602-.044 4.738.906 2.053 2.598 4.314 4.763 6.365 2.165 2.05 4.55 3.653 6.718 4.512 1.11.44 2.103.659 2.942.659.866 0 1.566-.234 2.06-.7l1.39-1.319c.326-.308.478-.733.418-1.166zm-5.718-3.074l4.688 2.556a.802.802 0 0 1 .42.595.77.77 0 0 1-.16.585l-6.23-3.368.254-.24a.89.89 0 0 1 1.028-.128zM3.281.59a.85.85 0 0 1 .627.397l2.7 4.441a.778.778 0 0 1-.137.974l-.232.22L2.664.743A.874.874 0 0 1 3.28.59zm13.462 16.296c-.771.73-2.349.7-4.328-.084-2.096-.83-4.411-2.388-6.521-4.387-2.11-1.998-3.754-4.192-4.63-6.177-.828-1.875-.86-3.37-.089-4.1l1.033-.98 3.58 5.892-.24.227a1.176 1.176 0 0 0-.095 1.634 26.882 26.882 0 0 0 4.14 3.922 1.345 1.345 0 0 0 1.725-.09l.219-.207 6.238 3.372-1.032.978z"/>
</svg>
