<svg xmlns="http://www.w3.org/2000/svg" width="30" height="30" viewBox="0 0 30 30">
    <g fill="#5B6D7C" fill-rule="nonzero" opacity=".8">
        <path d="M21.432 12.018a9.83 9.83 0 0 0-.01-.45 6.814 6.814 0 0 0 1.655-1.778 6.35 6.35 0 0 1-1.904.52 3.402 3.402 0 0 0 1.458-1.903c-.641.388-1.35.667-2.104.811a3.297 3.297 0 0 0-2.42-1.141c-1.83-.03-3.313 1.516-3.313 3.454 0 .275.029.543.086.8-2.756-.177-5.198-1.611-6.832-3.774A3.67 3.67 0 0 0 7.6 10.33c0 1.227.585 2.318 1.474 2.961a3.172 3.172 0 0 1-1.502-.46v.046c0 1.715 1.143 3.153 2.66 3.488a3.139 3.139 0 0 1-1.497.05c.422 1.406 1.646 2.433 3.096 2.467a6.396 6.396 0 0 1-4.907 1.448 8.94 8.94 0 0 0 5.081 1.593c6.095.002 9.427-5.303 9.427-9.905z"/>
        <path d="M30 15c0-8.284-6.716-15-15-15C6.716 0 0 6.716 0 15c0 8.284 6.716 15 15 15 8.284 0 15-6.716 15-15zM1.364 15C1.364 7.469 7.469 1.364 15 1.364c7.531 0 13.636 6.105 13.636 13.636 0 7.531-6.105 13.636-13.636 13.636-7.531 0-13.636-6.105-13.636-13.636z"/>
    </g>
</svg>
