<svg xmlns="http://www.w3.org/2000/svg" width="37" height="12" viewBox="0 0 37 12">
    <g fill="#5B6D7C" fill-rule="nonzero">
        <path d="M36.835 5.023c-.365-.198-1.188.95-1.413 1.183-.59.61-1.23 1.17-1.932 1.63-1.613 1.06-3.088 1.217-4.94 1.217-3.799 0-7.687-1.947-11.315-2.998-3.75-1.085-7.85-1.306-11.647-.372-1.684.414-3.44 1.324-4.428 2.859-.467.726-1.886 2.579-.695 3.404.434.332.705-.976.85-1.226.46-.785 1.35-1.22 2.052-1.715C4.6 8.133 6.67 7.564 8.14 7.605c2.085-.038 4.37-.374 6.406.297 1.626.536 3.313.906 4.961 1.46 1.853.624 3.687 1.315 5.595 1.732 1.056.23 2.127.379 3.204.433.831.042 1.67-.206 2.49-.107.633-.46 1.602-.381 2.105-1.053.774-.24 1.296-.904 1.98-1.314.687-.411 2.274-2.826 2.106-3.748-.029-.155-.082-.244-.153-.282z"/>
        <path d="M36.835.023c-.365-.198-1.188.95-1.413 1.183-.59.61-1.23 1.17-1.932 1.63-1.613 1.06-3.088 1.217-4.94 1.217-3.799 0-7.687-1.947-11.315-2.998C13.485-.03 9.385-.25 5.588.683c-1.684.414-3.44 1.324-4.428 2.859C.693 4.268-.726 6.12.465 6.946c.434.332.705-.976.85-1.226.46-.785 1.35-1.22 2.052-1.715C4.6 3.133 6.67 2.564 8.14 2.605c2.085-.038 4.37-.374 6.406.297 1.626.536 3.313.906 4.961 1.46 1.853.624 3.687 1.315 5.595 1.732 1.056.23 2.127.379 3.204.433.831.042 1.67-.206 2.49-.107.633-.46 1.602-.381 2.105-1.053.774-.24 1.296-.904 1.98-1.314.687-.411 2.274-2.826 2.106-3.748-.029-.155-.082-.244-.153-.282z"/>
    </g>
</svg>
